<svg width="222" height="48" viewBox="0 0 222 48" fill="none" xmlns="http://www.w3.org/2000/svg">
	<path d="M220.156 12.2678V17.2792H209.596C208.443 17.2792 207.449 17.4979 206.613 17.9354C205.778 18.373 205.361 18.9894 205.361 19.7849C205.361 20.2622 205.46 20.6997 205.659 21.0974C205.858 21.4553 206.076 21.7536 206.315 21.9923C206.593 22.2309 206.991 22.4894 207.508 22.7678C208.065 23.0065 208.483 23.1855 208.761 23.3048C209.079 23.3843 210.352 23.7821 212.579 24.498C214.807 25.2139 216.457 25.8105 217.531 26.2877C218.605 26.765 219.42 27.4213 219.977 28.2565C220.574 29.0519 220.951 29.8474 221.111 30.6429C221.27 31.3985 221.349 32.1542 221.349 32.9099C221.349 38.2395 217.69 40.9042 210.372 40.9042H200.051V35.8929H210.372C214.111 35.8929 215.98 34.8986 215.98 32.9099C215.98 31.9554 215.423 31.1599 214.309 30.5235C213.236 29.8872 211.903 29.3502 210.312 28.9127C208.761 28.4752 207.19 27.9781 205.599 27.4213C204.048 26.8247 202.716 25.89 201.602 24.6173C200.528 23.3048 199.991 21.694 199.991 19.7849C199.991 17.3587 200.926 15.5093 202.795 14.2366C204.665 12.9241 206.932 12.2678 209.596 12.2678H220.156Z" fill="black" />
	<path d="M194.594 40.9042H184.273C179.858 40.9042 176.696 40.248 174.787 38.9355C173.077 37.7821 171.983 36.4099 171.506 34.819C171.068 33.1883 170.85 31.0605 170.85 28.4355V12.2678H176.1V28.3758C176.1 29.0917 176.12 29.7082 176.159 30.2252C176.199 30.7025 176.338 31.3389 176.577 32.1343C176.816 32.89 177.154 33.5264 177.591 34.0434C178.029 34.5207 178.665 34.9582 179.5 35.3559C180.335 35.7139 181.35 35.8929 182.543 35.8929H189.344V12.2678H194.594V40.9042Z" fill="black" />
	<path d="M156.539 11.6713C163.3 11.9497 166.681 14.7537 166.681 20.0833C166.681 26.7253 162.326 30.0464 153.616 30.0464H151.169V25.4526H154.033C156.698 25.4526 158.547 25.0549 159.581 24.2594C160.616 23.4242 161.133 22.052 161.133 20.1429C161.133 18.91 160.675 17.9952 159.76 17.3986C158.846 16.7622 157.672 16.4441 156.241 16.4441C153.417 16.4441 151.189 17.4384 149.559 19.427C147.968 21.4157 147.172 23.802 147.172 26.5861C147.172 29.5293 148.027 31.9157 149.738 33.7452C151.488 35.5748 153.755 36.4896 156.539 36.4896C159.045 36.4896 161.093 35.8731 162.684 34.6401L166.263 38.16C163.519 40.3873 160.277 41.5009 156.539 41.5009C152.005 41.5009 148.385 40.1686 145.681 37.5038C142.976 34.839 141.624 31.3986 141.624 27.1827C141.624 22.4895 142.956 18.6912 145.621 15.7878C148.286 12.8844 151.925 11.5122 156.539 11.6713Z" fill="black" />
	<path d="M122.79 40.9042V24.6173C122.79 20.0434 123.645 16.8815 125.355 15.1315C126.191 14.2565 127.205 13.6002 128.398 13.1627C129.591 12.7252 130.625 12.4667 131.5 12.3871C132.415 12.3076 133.648 12.2678 135.199 12.2678H140.449V17.2792H134.125C133.33 17.2792 132.713 17.2991 132.276 17.3389C131.838 17.3786 131.321 17.5178 130.725 17.7565C130.128 17.9951 129.611 18.3729 129.174 18.89C128.418 19.8445 128.04 21.7536 128.04 24.6173V40.9042H122.79Z" fill="black" />
	<path d="M117.99 40.9042H107.669C103.255 40.9042 100.093 40.248 98.1836 38.9355C96.4734 37.7821 95.3796 36.4099 94.9023 34.819C94.4648 33.1883 94.2461 31.0605 94.2461 28.4355V12.2678H99.4961V28.3758C99.4961 29.0917 99.516 29.7082 99.5558 30.2252C99.5955 30.7025 99.7347 31.3389 99.9734 32.1343C100.212 32.89 100.55 33.5264 100.988 34.0434C101.425 34.5207 102.061 34.9582 102.897 35.3559C103.732 35.7139 104.746 35.8929 105.939 35.8929H112.74V12.2678H117.99V40.9042Z" fill="black" />
	<path d="M81.9606 24.0803V29.4497C80.4493 28.2963 78.5998 27.7196 76.4123 27.7196C74.543 27.7196 73.0913 28.0974 72.0572 28.8531C71.0231 29.569 70.506 30.6031 70.506 31.9554C70.506 34.5804 72.4549 35.8929 76.3527 35.8929H84.2277V24.498C84.2277 19.6855 81.8811 17.2792 77.1879 17.2792H67.6424V12.2678H77.4862C81.3441 12.2678 84.3072 13.2224 86.3754 15.1315C88.4436 17.0406 89.4777 19.7849 89.4777 23.3644V40.9042H76.1737C72.793 40.9042 70.1083 40.1486 68.1197 38.6372C66.131 37.1258 65.1367 34.9184 65.1367 32.015C65.1367 29.1116 66.1907 26.9042 68.2987 25.3929C70.4066 23.8815 73.0515 23.1258 76.2333 23.1258C78.0231 23.1258 79.9322 23.444 81.9606 24.0803Z" fill="black" />
	<path d="M52.8253 5.21739C52.8253 8.09888 50.4894 10.4348 47.6079 10.4348C44.7264 10.4348 42.3905 8.09888 42.3905 5.21739C42.3905 2.3359 44.7264 0 47.6079 0C50.4894 0 52.8253 2.3359 52.8253 5.21739Z" fill="url(#paint0_linear_76_9)" />
	<path d="M42.7958 47.9526L42.8191 47.9527L42.8435 47.9527C50.5348 47.9353 55.3411 39.6097 51.5015 32.9384L35.4336 5.02047C31.581 -1.67349 21.9221 -1.67349 18.0694 5.02052L2.00155 32.9384C-1.82667 39.5899 2.93987 47.886 10.5913 47.9523L10.6747 47.9529L10.6688 48H20.3068C21.3305 48 21.693 46.6442 20.8058 46.1334L15.1771 42.8923C13.9373 42.1784 13.1731 40.8566 13.1731 39.4259V28.1915C13.1731 26.7607 13.9373 25.439 15.1771 24.725L24.951 19.0971C26.1866 18.3857 27.7074 18.3857 28.943 19.0971L38.7169 24.725C39.9568 25.439 40.7209 26.7607 40.7209 28.1915V39.4259C40.7209 40.8566 39.9568 42.1784 38.7169 42.8923L33.0882 46.1334C32.2011 46.6442 32.5635 48 33.5872 48H42.3905L42.3873 47.9368C42.4822 47.9427 42.564 47.9464 42.6301 47.9487C42.7094 47.9516 42.7662 47.9524 42.7958 47.9526Z" fill="url(#paint1_linear_76_9)" />
	<path d="M26.9462 38.8175C29.7125 38.8175 31.9549 36.575 31.9549 33.8088C31.9549 31.0425 29.7125 28.8001 26.9462 28.8001C24.18 28.8001 21.9376 31.0425 21.9376 33.8088C21.9376 36.575 24.18 38.8175 26.9462 38.8175Z" fill="url(#paint2_linear_76_9)" />
	<defs>
		<linearGradient id="paint0_linear_76_9" x1="67.501" y1="46" x2="13.001" y2="21.5" gradientUnits="userSpaceOnUse">
			<stop stop-color="#CF8EA3" />
			<stop offset="0.295" stop-color="#A365C8" />
			<stop offset="0.396805" stop-color="#8660D5" />
			<stop offset="0.715532" stop-color="#4956F0" />
			<stop offset="1" stop-color="#3CADE8" />
		</linearGradient>
		<linearGradient id="paint1_linear_76_9" x1="67.501" y1="46" x2="13.001" y2="21.5" gradientUnits="userSpaceOnUse">
			<stop stop-color="#CF8EA3" />
			<stop offset="0.295" stop-color="#A365C8" />
			<stop offset="0.396805" stop-color="#8660D5" />
			<stop offset="0.715532" stop-color="#4956F0" />
			<stop offset="1" stop-color="#3CADE8" />
		</linearGradient>
		<linearGradient id="paint2_linear_76_9" x1="67.501" y1="46" x2="13.001" y2="21.5" gradientUnits="userSpaceOnUse">
			<stop stop-color="#CF8EA3" />
			<stop offset="0.295" stop-color="#A365C8" />
			<stop offset="0.396805" stop-color="#8660D5" />
			<stop offset="0.715532" stop-color="#4956F0" />
			<stop offset="1" stop-color="#3CADE8" />
		</linearGradient>
	</defs>
</svg>
