<svg width="221" height="48" viewBox="0 0 221 48" fill="none" xmlns="http://www.w3.org/2000/svg">
	<path d="M219.505 12.2678V17.2792H208.945C207.792 17.2792 206.797 17.4979 205.962 17.9354C205.127 18.373 204.709 18.9894 204.709 19.7849C204.709 20.2622 204.809 20.6997 205.007 21.0974C205.206 21.4553 205.425 21.7536 205.664 21.9923C205.942 22.2309 206.34 22.4894 206.857 22.7678C207.414 23.0065 207.831 23.1855 208.11 23.3048C208.428 23.3843 209.701 23.7821 211.928 24.498C214.155 25.2139 215.806 25.8105 216.88 26.2877C217.954 26.765 218.769 27.4213 219.326 28.2565C219.922 29.052 220.3 29.8474 220.459 30.6429C220.618 31.3985 220.698 32.1542 220.698 32.9099C220.698 38.2395 217.039 40.9042 209.721 40.9042H199.399V35.8929H209.721C213.459 35.8929 215.329 34.8986 215.329 32.9099C215.329 31.9554 214.772 31.1599 213.658 30.5235C212.584 29.8872 211.252 29.3502 209.661 28.9127C208.11 28.4752 206.539 27.9781 204.948 27.4213C203.397 26.8247 202.064 25.89 200.951 24.6173C199.877 23.3048 199.34 21.694 199.34 19.7849C199.34 17.3587 200.274 15.5093 202.144 14.2366C204.013 12.9241 206.28 12.2678 208.945 12.2678H219.505Z" fill="white" />
	<path d="M193.943 40.9042H183.622C179.207 40.9042 176.045 40.248 174.136 38.9355C172.426 37.7821 171.332 36.4099 170.854 34.819C170.417 33.1883 170.198 31.0605 170.198 28.4355V12.2678H175.448V28.3758C175.448 29.0917 175.468 29.7082 175.508 30.2252C175.548 30.7025 175.687 31.3389 175.926 32.1343C176.164 32.89 176.502 33.5264 176.94 34.0434C177.377 34.5207 178.014 34.9582 178.849 35.3559C179.684 35.7139 180.698 35.8929 181.891 35.8929H188.693V12.2678H193.943V40.9042Z" fill="white" />
	<path d="M155.887 11.6713C162.649 11.9497 166.03 14.7537 166.03 20.0833C166.03 26.7253 161.674 30.0464 152.964 30.0464H150.518V25.4526H153.382C156.047 25.4526 157.896 25.0549 158.93 24.2594C159.964 23.4242 160.481 22.052 160.481 20.1429C160.481 18.91 160.024 17.9952 159.109 17.3986C158.194 16.7622 157.021 16.4441 155.589 16.4441C152.765 16.4441 150.538 17.4384 148.907 19.427C147.316 21.4157 146.521 23.802 146.521 26.5861C146.521 29.5293 147.376 31.9157 149.086 33.7452C150.836 35.5748 153.103 36.4896 155.887 36.4896C158.393 36.4896 160.441 35.8731 162.032 34.6401L165.612 38.16C162.868 40.3873 159.626 41.5009 155.887 41.5009C151.353 41.5009 147.734 40.1686 145.029 37.5038C142.325 34.839 140.973 31.3986 140.973 27.1827C140.973 22.4895 142.305 18.6912 144.97 15.7878C147.635 12.8844 151.274 11.5122 155.887 11.6713Z" fill="white" />
	<path d="M122.139 40.9042V24.6173C122.139 20.0434 122.994 16.8815 124.704 15.1315C125.539 14.2565 126.553 13.6002 127.747 13.1627C128.94 12.7252 129.974 12.4667 130.849 12.3871C131.764 12.3076 132.997 12.2678 134.548 12.2678H139.798V17.2792H133.474C132.678 17.2792 132.062 17.2991 131.624 17.3389C131.187 17.3786 130.67 17.5178 130.073 17.7565C129.477 17.9951 128.96 18.3729 128.522 18.89C127.767 19.8445 127.389 21.7536 127.389 24.6173V40.9042H122.139Z" fill="white" />
	<path d="M117.339 40.9042H107.018C102.603 40.9042 99.4413 40.248 97.5322 38.9355C95.822 37.7821 94.7283 36.4099 94.251 34.819C93.8135 33.1883 93.5947 31.0605 93.5947 28.4355V12.2678H98.8447V28.3758C98.8447 29.0917 98.8646 29.7082 98.9044 30.2252C98.9442 30.7025 99.0834 31.3389 99.322 32.1343C99.5606 32.89 99.8987 33.5264 100.336 34.0434C100.774 34.5207 101.41 34.9582 102.245 35.3559C103.081 35.7139 104.095 35.8929 105.288 35.8929H112.089V12.2678H117.339V40.9042Z" fill="white" />
	<path d="M81.3092 24.0803V29.4497C79.7979 28.2963 77.9484 27.7196 75.7609 27.7196C73.8916 27.7196 72.4399 28.0974 71.4058 28.8531C70.3717 29.569 69.8547 30.6031 69.8547 31.9554C69.8547 34.5804 71.8035 35.8929 75.7013 35.8929H83.5763V24.498C83.5763 19.6855 81.2297 17.2792 76.5365 17.2792H66.991V12.2678H76.8348C80.6928 12.2678 83.6558 13.2224 85.724 15.1315C87.7922 17.0406 88.8263 19.7849 88.8263 23.3644V40.9042H75.5223C72.1416 40.9042 69.457 40.1486 67.4683 38.6372C65.4797 37.1258 64.4854 34.9184 64.4854 32.015C64.4854 29.1116 65.5393 26.9042 67.6473 25.3929C69.7552 23.8815 72.4001 23.1258 75.582 23.1258C77.3717 23.1258 79.2808 23.444 81.3092 24.0803Z" fill="white" />
	<path d="M52.1739 5.21739C52.1739 8.09888 49.838 10.4348 46.9565 10.4348C44.075 10.4348 41.7391 8.09888 41.7391 5.21739C41.7391 2.3359 44.075 0 46.9565 0C49.838 0 52.1739 2.3359 52.1739 5.21739Z" fill="url(#paint0_linear_77_19)" />
	<path d="M42.1444 47.9526L42.1677 47.9527L42.1921 47.9527C49.8834 47.9353 54.6897 39.6097 50.8501 32.9384L34.7823 5.02047C30.9296 -1.67349 21.2707 -1.67349 17.418 5.02052L1.35018 32.9384C-2.47804 39.5899 2.28851 47.886 9.93991 47.9523L10.0234 47.9529L10.0174 48H19.6554C20.6792 48 21.0416 46.6442 20.1544 46.1334L14.5257 42.8923C13.2859 42.1784 12.5217 40.8566 12.5217 39.4259V28.1915C12.5217 26.7607 13.2859 25.439 14.5257 24.725L24.2997 19.0971C25.5352 18.3857 27.0561 18.3857 28.2916 19.0971L38.0656 24.725C39.3054 25.439 40.0696 26.7607 40.0696 28.1915V39.4259C40.0696 40.8566 39.3054 42.1784 38.0656 42.8923L32.4369 46.1334C31.5497 46.6442 31.9121 48 32.9359 48H41.7391L41.7359 47.9368C41.8308 47.9427 41.9126 47.9464 41.9787 47.9487C42.0581 47.9516 42.1148 47.9524 42.1444 47.9526Z" fill="url(#paint1_linear_77_19)" />
	<path d="M26.2949 38.8175C29.0611 38.8175 31.3036 36.575 31.3036 33.8088C31.3036 31.0425 29.0611 28.8001 26.2949 28.8001C23.5287 28.8001 21.2862 31.0425 21.2862 33.8088C21.2862 36.575 23.5287 38.8175 26.2949 38.8175Z" fill="url(#paint2_linear_77_19)" />
	<defs>
		<linearGradient id="paint0_linear_77_19" x1="52.2003" y1="42.5455" x2="8.76214" y2="20.2072" gradientUnits="userSpaceOnUse">
			<stop stop-color="#A96AC3" />
			<stop offset="0.0844145" stop-color="#A365C8" />
			<stop offset="0.206862" stop-color="#8660D5" />
			<stop offset="0.613139" stop-color="#4956F0" />
			<stop offset="0.943057" stop-color="#3CACE8" />
			<stop offset="1" stop-color="#3CADE8" />
		</linearGradient>
		<linearGradient id="paint1_linear_77_19" x1="52.2003" y1="42.5455" x2="8.76214" y2="20.2072" gradientUnits="userSpaceOnUse">
			<stop stop-color="#A96AC3" />
			<stop offset="0.0844145" stop-color="#A365C8" />
			<stop offset="0.206862" stop-color="#8660D5" />
			<stop offset="0.613139" stop-color="#4956F0" />
			<stop offset="0.943057" stop-color="#3CACE8" />
			<stop offset="1" stop-color="#3CADE8" />
		</linearGradient>
		<linearGradient id="paint2_linear_77_19" x1="52.2003" y1="42.5455" x2="8.76214" y2="20.2072" gradientUnits="userSpaceOnUse">
			<stop stop-color="#A96AC3" />
			<stop offset="0.0844145" stop-color="#A365C8" />
			<stop offset="0.206862" stop-color="#8660D5" />
			<stop offset="0.613139" stop-color="#4956F0" />
			<stop offset="0.943057" stop-color="#3CACE8" />
			<stop offset="1" stop-color="#3CADE8" />
		</linearGradient>
	</defs>
</svg>
